<?xml version="1.0" encoding="UTF-8" standalone="no"?>
<!-- Created with Inkscape (http://www.inkscape.org/) -->

<svg
   width="199.85391"
   height="129.2699"
   viewBox="0 0 52.878013 34.202662"
   version="1.1"
   id="svg1"
   xml:space="preserve"
   xmlns="http://www.w3.org/2000/svg"
   xmlns:svg="http://www.w3.org/2000/svg"><defs
     id="defs1" /><g
     id="layer1"
     transform="translate(-37.055023,-37.880836)"><g
       id="g14"
       transform="translate(0,0.53543768)"><path
         id="path1"
         style="fill:none;stroke:#00ffff;stroke-width:0.449792;stroke-dasharray:none"
         d="m 50.071486,47.512031 c 1.751983,-5.754623 7.101523,-9.941737 13.429016,-9.941737 6.312234,0 11.651227,4.166944 13.416278,9.900133" /><path
         id="path1-0"
         style="fill:none;stroke:#00ffff;stroke-width:0.449792;stroke-dasharray:none"
         d="m 50.071486,55.699327 c 1.751983,5.754623 7.101523,9.941737 13.429016,9.941737 6.312234,0 11.651227,-4.166944 13.416278,-9.900133" /><path
         d="m 60.679541,47.312111 v -2.60969 h -1.046358 v -0.28537 h 2.411172 v 0.28537 h -1.046357 v 2.60969 z m 1.753574,0 v -2.89506 h 0.318455 v 1.294505 h 1.683271 v -1.294505 h 0.318457 v 2.89506 H 64.434841 V 45.996927 H 62.75157 v 1.315184 z m 2.957089,0 v -2.89506 h 2.072036 v 0.281234 h -1.75358 v 1.013271 h 1.145617 v 0.277099 H 65.70866 v 1.042222 h 1.770123 v 0.281234 z"
         id="text2"
         style="font-size:4.1358px;font-family:'Red Hat Display';-inkscape-font-specification:'Red Hat Display, Normal';text-align:center;text-anchor:middle;fill:#cccccc;stroke-width:0.224564"
         aria-label="THE&#10;&#10;&#10;&#10;&#10;&#10;&#10;&#10;&#10;&#10;" /><path
         d="m 55.225599,59.210262 q -0.225962,0 -0.422193,-0.08027 -0.196231,-0.08326 -0.344891,-0.228935 -0.148659,-0.14866 -0.231908,-0.341918 -0.08027,-0.196231 -0.08027,-0.422193 0,-0.225963 0.08027,-0.41922 0.08326,-0.19623 0.231908,-0.341918 0.14866,-0.148659 0.344891,-0.228936 0.196231,-0.08324 0.422193,-0.08324 0.163525,0 0.312185,0.04163 0.151633,0.03866 0.27948,0.115953 0.13082,0.07433 0.23191,0.184339 l -0.151633,0.160552 q -0.121902,-0.139739 -0.300292,-0.21407 -0.178392,-0.0773 -0.37165,-0.0773 -0.181365,0 -0.335971,0.06541 -0.154606,0.06541 -0.27056,0.184338 -0.112984,0.115955 -0.178392,0.273534 -0.06244,0.154606 -0.06244,0.338944 0,0.181365 0.06244,0.338943 0.06541,0.157579 0.181365,0.276508 0.115954,0.115954 0.270561,0.181364 0.157579,0.06541 0.338943,0.06541 0.193258,0 0.368677,-0.07433 0.175417,-0.0773 0.294346,-0.211097 l 0.148659,0.154606 q -0.104058,0.107041 -0.234882,0.184337 -0.127847,0.0773 -0.276508,0.118929 -0.148659,0.03866 -0.306238,0.03866 z m 2.096092,0 q -0.225963,0 -0.422194,-0.08027 -0.193257,-0.08326 -0.341916,-0.228935 -0.145688,-0.14866 -0.228937,-0.341918 -0.08027,-0.196231 -0.08027,-0.422193 0,-0.225963 0.08027,-0.41922 0.08326,-0.19623 0.228937,-0.341918 0.148659,-0.148659 0.341916,-0.228936 0.196231,-0.08324 0.422194,-0.08324 0.22299,0 0.416247,0.08324 0.19623,0.08027 0.341918,0.228936 0.148659,0.145688 0.228935,0.341918 0.08326,0.193257 0.08326,0.41922 0,0.225962 -0.08326,0.422193 -0.08027,0.193258 -0.228935,0.341918 -0.145688,0.145686 -0.341918,0.228935 -0.193257,0.08027 -0.416247,0.08027 z m 0,-0.211098 q 0.178391,0 0.330024,-0.06541 0.151632,-0.06541 0.264615,-0.181364 0.115954,-0.118928 0.178392,-0.276507 0.06541,-0.157579 0.06541,-0.338945 0,-0.184336 -0.06541,-0.338942 -0.06244,-0.15758 -0.178392,-0.273535 -0.112984,-0.118927 -0.264615,-0.184339 -0.151633,-0.06541 -0.330024,-0.06541 -0.178391,0 -0.332997,0.06541 -0.151633,0.06541 -0.267589,0.184339 -0.112984,0.115955 -0.178391,0.273535 -0.06244,0.154606 -0.06244,0.338942 0,0.181366 0.06244,0.338945 0.06541,0.157579 0.178391,0.276507 0.115956,0.115955 0.267589,0.181364 0.154606,0.06541 0.332997,0.06541 z m 1.4301,0.178392 v -2.081234 h 0.228937 v 1.876085 h 1.239821 v 0.205149 z m 1.795803,0 v -2.081234 h 0.228937 v 1.876085 h 1.239821 v 0.205149 z m 1.795802,0 v -2.081234 h 1.489571 v 0.202176 h -1.260634 v 0.728433 h 0.823575 v 0.199203 h -0.823575 v 0.749245 h 1.272527 v 0.202177 z m 2.678847,0.0327 q -0.225964,0 -0.422195,-0.08027 -0.19623,-0.08326 -0.34489,-0.228935 -0.148659,-0.148661 -0.231909,-0.341918 -0.08027,-0.196232 -0.08027,-0.422194 0,-0.225963 0.08027,-0.419219 0.08326,-0.196231 0.231909,-0.341918 0.14866,-0.148659 0.34489,-0.228936 0.196231,-0.08324 0.422195,-0.08324 0.163525,0 0.312185,0.04163 0.151633,0.03866 0.27948,0.115954 0.13082,0.07433 0.231908,0.184338 L 65.694183,57.5661 q -0.1219,-0.139739 -0.300292,-0.214069 -0.178392,-0.0773 -0.371648,-0.0773 -0.181365,0 -0.335971,0.06541 -0.154606,0.06541 -0.270561,0.184339 -0.112984,0.115954 -0.178392,0.273533 -0.06244,0.154606 -0.06244,0.338944 0,0.181366 0.06244,0.338945 0.06541,0.157578 0.181365,0.276506 0.115955,0.115955 0.270561,0.181364 0.157579,0.06542 0.338943,0.06542 0.193259,0 0.368676,-0.07433 0.175419,-0.0773 0.294346,-0.211096 l 0.148661,0.154606 q -0.104058,0.10704 -0.234883,0.184337 -0.127847,0.0773 -0.276506,0.118928 -0.14866,0.03866 -0.306239,0.03866 z m 1.769044,-0.0327 v -1.876085 h -0.752218 v -0.205149 h 1.733372 v 0.205149 h -0.752218 v 1.876085 z m 1.26063,0 v -2.081234 h 0.228936 v 2.081234 z m 1.662012,0.0327 q -0.225963,0 -0.422193,-0.08027 -0.193258,-0.08326 -0.341917,-0.228935 -0.145686,-0.148661 -0.228936,-0.341918 -0.08027,-0.196232 -0.08027,-0.422194 0,-0.225963 0.08027,-0.419219 0.08326,-0.196231 0.228936,-0.341918 0.148659,-0.148659 0.341917,-0.228936 0.19623,-0.08324 0.422193,-0.08324 0.222989,0 0.416247,0.08324 0.196231,0.08027 0.341918,0.228936 0.148659,0.145687 0.228935,0.341918 0.08325,0.193256 0.08325,0.419219 0,0.225962 -0.08325,0.422194 -0.08027,0.193257 -0.228935,0.341918 -0.145687,0.145686 -0.341918,0.228935 -0.193258,0.08027 -0.416247,0.08027 z m 0,-0.211097 q 0.178392,0 0.330025,-0.06541 0.151633,-0.06541 0.264614,-0.181365 0.115954,-0.118928 0.178391,-0.276507 0.06541,-0.157579 0.06541,-0.338944 0,-0.184337 -0.06541,-0.338943 -0.06244,-0.157579 -0.178391,-0.273535 -0.112985,-0.118927 -0.264614,-0.184337 -0.151633,-0.06541 -0.330025,-0.06541 -0.178392,0 -0.332998,0.06541 -0.151633,0.06541 -0.267586,0.184337 -0.112985,0.115956 -0.178392,0.273535 -0.06244,0.154606 -0.06244,0.338943 0,0.181365 0.06244,0.338944 0.06541,0.157579 0.178392,0.276507 0.115953,0.115955 0.267586,0.181365 0.154606,0.06541 0.332998,0.06541 z m 1.430101,0.178392 v -2.081235 h 0.228936 l 1.251714,1.688774 v -1.688774 h 0.217042 v 2.081235 h -0.202176 l -1.278473,-1.733372 v 1.733372 z"
         id="text2-7"
         style="font-size:2.59125px;font-family:'Red Hat Display';-inkscape-font-specification:'Red Hat Display, Normal';text-align:center;text-anchor:middle;fill:#cccccc;stroke-width:0.161437"
         aria-label="COLLECTION&#10;&#10;&#10;&#10;&#10;&#10;&#10;&#10;&#10;&#10;" /><path
         d="m 53.430602,54.868275 q -0.555225,0 -1.037394,-0.204556 -0.474863,-0.204557 -0.840143,-0.562531 -0.357974,-0.365279 -0.56253,-0.840142 -0.204557,-0.482169 -0.204557,-1.030088 0,-0.547919 0.197251,-1.022783 0.204557,-0.482169 0.562531,-0.840142 0.365279,-0.36528 0.840142,-0.569836 0.482169,-0.204557 1.037394,-0.204557 0.591752,0 1.117756,0.219168 0.526001,0.219167 0.898586,0.620975 l -0.37989,0.387196 q -0.292224,-0.336057 -0.730559,-0.518697 -0.43103,-0.189945 -0.905893,-0.189945 -0.438336,0 -0.818227,0.160723 -0.372585,0.160722 -0.657503,0.452945 -0.277611,0.284918 -0.438335,0.672115 -0.153418,0.37989 -0.153418,0.832837 0,0.445641 0.153418,0.832837 0.160723,0.387197 0.438335,0.67942 0.284918,0.284918 0.657503,0.445641 0.379891,0.160723 0.818227,0.160723 0.518697,0 0.935116,-0.226473 0.423724,-0.226473 0.67942,-0.620975 0.263001,-0.394502 0.306835,-0.891282 h -1.833704 v -0.49678 h 2.40354 v 0.226473 q 0,0.533308 -0.189946,0.99356 -0.189945,0.460252 -0.526002,0.803615 -0.336057,0.343363 -0.789004,0.540614 -0.452947,0.189945 -0.978949,0.189945 z m 3.353253,-0.08036 v -5.113914 h 2.191677 q 0.504086,0 0.876671,0.18264 0.372585,0.18264 0.577141,0.511392 0.211862,0.328751 0.211862,0.774392 0,0.504086 -0.299529,0.869365 -0.292223,0.357974 -0.789004,0.504086 l 1.146978,2.272039 h -0.620975 l -1.095839,-2.198984 h -1.636452 v 2.198983 z m 0.56253,-2.673846 h 1.592619 q 0.518697,0 0.825532,-0.263002 0.31414,-0.263001 0.31414,-0.708641 0,-0.438336 -0.31414,-0.701338 -0.306835,-0.263001 -0.825532,-0.263001 h -1.592619 z m 3.689314,2.673846 2.118621,-5.113914 h 0.679419 l 2.10401,5.113914 H 65.32408 l -0.642892,-1.60723 h -2.410845 l -0.650198,1.60723 z m 1.431896,-2.089399 h 2.016343 l -1.008172,-2.505818 z m 4.061899,2.089399 v -5.113914 h 0.56253 l 3.075654,4.149576 v -4.149576 h 0.533308 v 5.113914 h -0.496781 l -3.141402,-4.259159 v 4.259159 z m 5.859071,-0.511392 h 1.154285 q 0.44564,0 0.82553,-0.153417 0.379892,-0.153418 0.66481,-0.43103 0.284918,-0.277612 0.438334,-0.650197 0.160724,-0.372585 0.160724,-0.810921 0,-0.438335 -0.160724,-0.81092 -0.153417,-0.372586 -0.438334,-0.650198 -0.284918,-0.277612 -0.66481,-0.43103 -0.37989,-0.153417 -0.82553,-0.153417 h -1.154285 z m -0.562529,0.511392 v -5.113914 h 1.68759 q 0.584447,0 1.073922,0.189946 0.489474,0.189945 0.847448,0.533308 0.36528,0.343363 0.562532,0.81092 0.204555,0.467558 0.204555,1.022783 0,0.555225 -0.19725,1.022783 -0.197251,0.467557 -0.56253,0.81092 -0.357974,0.343363 -0.854754,0.533308 -0.489475,0.189946 -1.073922,0.189946 z"
         id="text2-3"
         style="font-size:7.30559px;font-family:'Red Hat Display';-inkscape-font-specification:'Red Hat Display, Normal';text-align:center;text-anchor:middle;fill:#cccccc;stroke-width:0.396677"
         aria-label="GRAND&#10;&#10;&#10;&#10;&#10;&#10;&#10;&#10;&#10;&#10;" /><path
         style="font-style:italic;font-size:2.98649px;font-family:'Red Hat Display';-inkscape-font-specification:'Red Hat Display, @wght=600';font-variation-settings:'wght' 600;text-align:center;text-anchor:middle;fill:#cccccc;stroke-width:0.199949"
         d="m 52.153805,70.833656 q -0.243043,0 -0.467674,-0.08838 -0.224632,-0.09206 -0.364565,-0.246726 l 0.217266,-0.228314 q 0.139934,0.136252 0.294598,0.206219 0.158347,0.06996 0.324058,0.06996 0.184123,0 0.301963,-0.07734 0.117842,-0.08101 0.117842,-0.206218 0,-0.08839 -0.0626,-0.139935 -0.0626,-0.05524 -0.198853,-0.0847 l -0.320376,-0.07365 q -0.239361,-0.05155 -0.357199,-0.173077 -0.114156,-0.125204 -0.114156,-0.316692 0,-0.17676 0.08839,-0.305646 0.08838,-0.132569 0.246726,-0.202537 0.16203,-0.07365 0.375613,-0.07365 0.217266,0 0.412437,0.07365 0.198853,0.07365 0.364566,0.217267 l -0.209901,0.231996 q -0.139935,-0.117842 -0.290916,-0.180442 -0.150982,-0.0626 -0.298281,-0.0626 -0.165712,0 -0.265138,0.07365 -0.09943,0.07365 -0.09943,0.195171 0,0.08838 0.0626,0.139934 0.0626,0.05155 0.206218,0.0847 l 0.320376,0.07365 q 0.243043,0.05155 0.364565,0.173076 0.121517,0.121517 0.121517,0.309328 0,0.173076 -0.103107,0.313011 -0.09943,0.139935 -0.276186,0.220948 -0.173077,0.07734 -0.390343,0.07734 z m 0.762268,0.714401 0.559737,-2.625607 h 0.3572 l -0.02577,0.117842 q 0.224631,-0.143616 0.482404,-0.143616 0.239361,0 0.423484,0.114155 0.187807,0.110481 0.298281,0.305646 0.110469,0.195172 0.110469,0.441898 0,0.220948 -0.08101,0.416119 -0.08101,0.195171 -0.224631,0.342471 -0.139935,0.143616 -0.327741,0.228313 -0.187807,0.08101 -0.405071,0.08101 -0.17676,0 -0.335106,-0.0626 -0.154665,-0.0626 -0.265138,-0.180441 l -0.20622,0.964809 z m 1.156298,-1.042142 q 0.198854,0 0.353517,-0.09575 0.158347,-0.09574 0.250408,-0.257772 0.09206,-0.165712 0.09206,-0.360883 0,-0.169395 -0.07365,-0.298281 -0.06996,-0.132568 -0.198855,-0.206218 -0.128886,-0.07365 -0.290914,-0.07365 -0.13257,0 -0.254091,0.04419 -0.117843,0.04419 -0.213584,0.128887 l -0.180442,0.854335 q 0.07365,0.121516 0.209901,0.195171 0.139935,0.06996 0.305646,0.06996 z m 1.196802,0.290916 0.548689,-2.577733 0.375612,-0.08101 -0.563419,2.658748 z m 1.82282,0.03683 q -0.268821,0 -0.478723,-0.114155 -0.209901,-0.114155 -0.32774,-0.31301 -0.117843,-0.202536 -0.117843,-0.460309 0,-0.213584 0.07734,-0.405072 0.07734,-0.19149 0.213583,-0.338788 0.139935,-0.147299 0.320376,-0.228314 0.180441,-0.08101 0.386661,-0.08101 0.235678,0 0.419801,0.117842 0.184124,0.114155 0.290916,0.316693 0.106794,0.198854 0.106794,0.456627 0,0.03682 -0.0037,0.0847 0,0.04419 -0.0111,0.106794 h -1.44353 q 0.0111,0.158346 0.08838,0.28355 0.08101,0.121516 0.209902,0.191489 0.128886,0.06996 0.290916,0.06996 0.128886,0 0.246726,-0.03683 0.121516,-0.04051 0.217265,-0.110481 l 0.195171,0.243044 q -0.162028,0.114156 -0.32774,0.165712 -0.162029,0.05155 -0.353517,0.05155 z m -0.537642,-1.13052 h 1.086331 q -0.01474,-0.147299 -0.0847,-0.257773 -0.06629,-0.110481 -0.173077,-0.173077 -0.106794,-0.06629 -0.243043,-0.06629 -0.136251,0 -0.257773,0.06629 -0.117842,0.0626 -0.202536,0.176759 -0.0847,0.110468 -0.125204,0.254091 z m 1.576093,1.093696 0.397708,-1.874381 h 0.357199 l -0.03314,0.165711 q 0.243043,-0.198853 0.541324,-0.198853 0.224631,0 0.375613,0.103107 0.150981,0.09943 0.213583,0.276185 0.0626,0.176759 0.01474,0.40139 l -0.23936,1.126838 H 59.40091 l 0.228313,-1.086331 q 0.04788,-0.228313 -0.05524,-0.364564 -0.103107,-0.139935 -0.316693,-0.139935 -0.139935,0 -0.261456,0.05891 -0.117842,0.05524 -0.217266,0.162028 l -0.287233,1.369882 z m 2.990169,0.02946 q -0.23568,0 -0.423486,-0.114155 -0.187806,-0.114156 -0.29828,-0.309329 -0.106794,-0.195172 -0.106794,-0.441896 0,-0.22095 0.08101,-0.412438 0.08101,-0.191489 0.220948,-0.338788 0.143618,-0.147299 0.331424,-0.228314 0.187807,-0.0847 0.405072,-0.0847 0.180442,0 0.335106,0.0626 0.154664,0.05891 0.268821,0.176759 l 0.191488,-0.916936 0.375612,-0.08101 -0.563419,2.658748 h -0.357199 l 0.0221,-0.114156 Q 61.382064,70.8263 61.120609,70.8263 Z m 0.08837,-0.316693 q 0.13257,0 0.250409,-0.04419 0.121517,-0.04788 0.217266,-0.136252 l 0.184124,-0.858017 q -0.07365,-0.114156 -0.213584,-0.184124 -0.139934,-0.07365 -0.305645,-0.07365 -0.19149,0 -0.349836,0.09943 -0.158347,0.09575 -0.25409,0.257774 -0.09206,0.158347 -0.09206,0.360883 0,0.165711 0.06996,0.29828 0.07365,0.132569 0.202536,0.206219 0.128886,0.07365 0.290915,0.07365 z m 2.172656,0.324058 q -0.257773,0 -0.460309,-0.114155 -0.198854,-0.117842 -0.316693,-0.324058 -0.117842,-0.206218 -0.117842,-0.460309 0,-0.213583 0.08101,-0.40139 0.08101,-0.191489 0.220948,-0.335105 0.143617,-0.147299 0.327741,-0.228313 0.187806,-0.0847 0.394024,-0.0847 0.257774,0 0.456627,0.117842 0.202537,0.114155 0.320376,0.316693 0.117842,0.202536 0.117842,0.46031 0,0.213583 -0.08101,0.405071 -0.08101,0.19149 -0.224631,0.338789 -0.139934,0.143617 -0.324058,0.228313 -0.184124,0.08101 -0.394025,0.08101 z m 0.01473,-0.324058 q 0.136251,0 0.250409,-0.05524 0.117842,-0.05524 0.206218,-0.154663 0.09206,-0.09943 0.143616,-0.228315 0.05524,-0.128886 0.05524,-0.272503 0,-0.169394 -0.07365,-0.301962 -0.06996,-0.136252 -0.198854,-0.209902 -0.125204,-0.07734 -0.28355,-0.07734 -0.136253,0 -0.254091,0.05524 -0.114155,0.05524 -0.20622,0.154665 -0.09206,0.09575 -0.143616,0.228313 -0.05155,0.128886 -0.05155,0.268821 0,0.169393 0.06996,0.305644 0.07365,0.136252 0.198854,0.213585 0.128886,0.07365 0.287232,0.07365 z m 1.90752,0.320375 q -0.224631,0 -0.379296,-0.103107 -0.150981,-0.103108 -0.213583,-0.279868 -0.05891,-0.176758 -0.01474,-0.40139 l 0.239361,-1.123155 h 0.360883 l -0.231996,1.086331 q -0.04788,0.228313 0.05524,0.368247 0.106794,0.136252 0.320376,0.136252 0.139933,0 0.261456,-0.05891 0.121517,-0.05892 0.217266,-0.169394 l 0.287233,-1.362517 h 0.360883 l -0.397708,1.874381 h -0.360882 l 0.03683,-0.165711 q -0.243044,0.198853 -0.541324,0.198853 z m 1.296231,-0.03314 0.397707,-1.874381 h 0.3572 l -0.04419,0.213584 q 0.103107,-0.121517 0.235679,-0.187806 0.136251,-0.06629 0.287233,-0.06629 0.128886,0 0.209901,0.04051 l -0.06629,0.331422 q -0.03683,-0.0221 -0.106794,-0.03682 -0.06629,-0.01474 -0.128886,-0.01474 -0.305646,0 -0.511864,0.313009 l -0.272504,1.281503 z"
         id="text13"
         aria-label="splendour" /><path
         style="font-style:italic;font-size:2.98649px;font-family:'Red Hat Display';-inkscape-font-specification:'Red Hat Display, @wght=400';font-variation-settings:'wght' 400;text-align:center;text-anchor:middle;fill:#cccccc;stroke-width:0.199949"
         d="m 69.734063,70.796817 q -0.224631,0 -0.438215,-0.09206 -0.213583,-0.09206 -0.34247,-0.250409 l 0.176758,-0.165711 q 0.125205,0.139934 0.279868,0.213584 0.158347,0.07365 0.331423,0.07365 0.206219,0 0.338789,-0.09575 0.136251,-0.09575 0.136251,-0.243044 0,-0.103107 -0.06996,-0.162028 -0.06996,-0.0626 -0.228313,-0.09943 l -0.301963,-0.06996 q -0.235679,-0.05155 -0.346152,-0.165711 -0.110481,-0.114156 -0.110481,-0.29828 0,-0.169395 0.0847,-0.290916 0.0847,-0.125205 0.235679,-0.195171 0.150981,-0.06996 0.353518,-0.06996 0.206218,0 0.390342,0.07365 0.187806,0.06996 0.349835,0.217267 l -0.162029,0.176759 q -0.136251,-0.121517 -0.290915,-0.184124 -0.150982,-0.06629 -0.301963,-0.06629 -0.187807,0 -0.301963,0.08837 -0.114155,0.08839 -0.114155,0.228315 0,0.103107 0.06629,0.162028 0.06996,0.05891 0.228314,0.09575 l 0.301963,0.06996 q 0.243043,0.05524 0.3572,0.169394 0.114155,0.110481 0.114155,0.294598 0,0.165712 -0.09943,0.298281 -0.09575,0.132568 -0.261456,0.209901 -0.165711,0.07734 -0.375611,0.07734 z m 1.598184,-0.0037 q -0.257773,0 -0.375613,-0.121516 -0.114155,-0.125203 -0.06629,-0.349835 l 0.246726,-1.17471 h -0.39034 l 0.05155,-0.231995 h 0.386661 l 0.09943,-0.467676 0.28355,-0.06996 -0.114155,0.537642 h 0.537642 l -0.05155,0.231995 H 71.40222 l -0.239361,1.115791 q -0.03314,0.158347 0.02946,0.228313 0.0626,0.06629 0.243043,0.06629 0.05155,0 0.09943,-0.0074 0.04788,-0.0111 0.114155,-0.02946 l -0.04787,0.239361 q -0.05891,0.01474 -0.132569,0.0221 -0.06996,0.0111 -0.136252,0.0111 z m 1.211529,-0.0074 q -0.283551,0 -0.456627,-0.139934 -0.173076,-0.139935 -0.173076,-0.375613 0,-0.180441 0.09206,-0.313011 0.09206,-0.136251 0.261456,-0.209901 0.169393,-0.07734 0.397707,-0.07734 0.162029,0 0.31301,0.04419 0.154665,0.0405 0.276186,0.114155 l 0.04787,-0.217266 q 0.05155,-0.250408 -0.05891,-0.375613 -0.106794,-0.125203 -0.379296,-0.125203 -0.117842,0 -0.250408,0.03682 -0.128886,0.03314 -0.301962,0.106794 l -0.07365,-0.217267 q 0.191488,-0.08101 0.357201,-0.117842 0.165711,-0.03683 0.313009,-0.03683 0.250408,0 0.412438,0.0847 0.162029,0.0847 0.224631,0.246726 0.06629,0.158347 0.01841,0.379296 L 73.3171,70.759922 h -0.261456 l 0.03315,-0.150981 q -0.125204,0.08838 -0.261457,0.13257 -0.132568,0.04419 -0.283549,0.04419 z m 0.06996,-0.209901 q 0.143617,0 0.272503,-0.04419 0.13257,-0.04788 0.250409,-0.143617 l 0.07365,-0.346152 q -0.209901,-0.173078 -0.548689,-0.173078 -0.213583,0 -0.353517,0.106794 -0.139934,0.106794 -0.139934,0.26882 0,0.154664 0.117842,0.243044 0.117843,0.08839 0.327741,0.08839 z m 1.008985,0.972173 q -0.05155,0 -0.103107,-0.0074 -0.05155,-0.0074 -0.09943,-0.0221 l 0.05155,-0.243043 q 0.02946,0.0111 0.07365,0.01474 0.04051,0.0074 0.0847,0.0074 0.117842,0 0.217266,-0.06629 0.09943,-0.06629 0.187807,-0.202536 l 0.176759,-0.272503 -0.353518,-1.841238 h 0.28355 l 0.276186,1.528227 0.95008,-1.528227 h 0.298279 l -1.366198,2.168978 q -0.154664,0.246726 -0.31301,0.353518 -0.158346,0.11048 -0.364566,0.11048 z"
         id="text13-7"
         aria-label="stay" /><path
         style="font-variation-settings:'wght' 400;fill:#00ffff;stroke:#00ffff;stroke-width:0.449792;stroke-dasharray:none"
         d="M 47.123161,52.289693 H 37.055023"
         id="path189" /><path
         style="font-variation-settings:'wght' 400;fill:#00ffff;stroke:#00ffff;stroke-width:0.449792;stroke-dasharray:none"
         d="M 89.933038,52.296831 H 79.8649"
         id="path189-7" /></g></g></svg>
