<?xml version="1.0" encoding="UTF-8" standalone="no"?>
<svg
   width="375.609"
   height="75.591"
   viewBox="0 0 99.38 20"
   version="1.1"
   id="svg2"
   xmlns="http://www.w3.org/2000/svg"
   xmlns:svg="http://www.w3.org/2000/svg">
  <defs
     id="defs2" />
  <path
     d="M22.726 14.061c-1.51 3.119-4.706 5.271-8.404 5.271-3.708 0-6.911-2.163-8.416-5.296M4.99 10c0-5.154 4.178-9.332 9.332-9.332S23.654 4.846 23.654 10M0 11.894h28.645"
     fill="none"
     stroke="#6c705c"
     stroke-width="1.337"
     id="path1"
     style="stroke:#ffffff" />
  <path
     d="M33.459 8.654V.974H30.38v-.84h7.096v.84h-3.079v7.68zm5.161 0V.134h.937v3.81h4.954V.134h.937v8.52h-.937V4.783h-4.954v3.871zm8.703 0V.134h6.098v.828H48.26v2.982h3.372v.815H48.26v3.067h5.209v.828zm14.119.134q-.925 0-1.728-.341-.791-.341-1.4-.937-.596-.609-.937-1.4-.341-.803-.341-1.716 0-.913.329-1.704.341-.803.937-1.4.609-.609 1.4-.949Q60.504 0 61.429 0q.986 0 1.862.365.876.365 1.497 1.035l-.633.645q-.487-.56-1.217-.864-.718-.316-1.509-.316-.73 0-1.363.268-.621.268-1.095.755-.463.475-.73 1.12-.256.633-.256 1.388 0 .742.256 1.388.268.645.73 1.132.475.475 1.095.742.633.268 1.363.268.864 0 1.558-.377.706-.377 1.132-1.035.438-.657.511-1.485h-3.055v-.828h4.004v.377q0 .889-.316 1.655-.316.767-.876 1.339-.56.572-1.315.901-.755.316-1.631.316zm5.587-.134V.134h3.651q.84 0 1.461.304.621.304.962.852.353.548.353 1.29 0 .84-.499 1.448-.487.596-1.315.84l1.911 3.785h-1.035L70.691 4.99h-2.726v3.664zm.937-4.455h2.653q.864 0 1.375-.438.523-.438.523-1.181 0-.73-.523-1.168-.511-.438-1.375-.438h-2.653zm6.147 4.455l3.53-8.52h1.132l3.505 8.52h-1.022l-1.071-2.678H76.17l-1.083 2.678zm2.386-3.481h3.359L78.177.998zm6.767 3.481V.134h.937l5.124 6.913V.134h.889v8.52h-.828l-5.234-7.096v7.096zm9.762-.852h1.923q.742 0 1.375-.255.633-.255 1.108-.718.475-.463.73-1.083.268-.621.268-1.351 0-.73-.268-1.351-.256-.621-.73-1.083-.475-.463-1.108-.718-.633-.255-1.375-.255h-1.923zm-.937.852V.134H94.9q.974 0 1.789.316.815.316 1.412.889.609.572.937 1.351.341.779.341 1.704 0 .925-.329 1.704-.329.779-.937 1.351-.596.572-1.424.889-.815.316-1.789.316zM34.363 19.999q-.834 0-1.558-.296-.724-.307-1.273-.845-.549-.549-.856-1.262-.296-.724-.296-1.558 0-.834.296-1.547.307-.724.856-1.262.549-.549 1.273-.845.724-.307 1.558-.307.604 0 1.152.153.56.143 1.031.428.483.274.856.68l-.56.593q-.45-.516-1.108-.79-.658-.285-1.372-.285-.669 0-1.24.242-.571.242-.999.68-.417.428-.658 1.01-.23.571-.23 1.251 0 .669.23 1.251.241.582.669 1.021.428.428.999.669.582.242 1.251.242.713 0 1.361-.274.647-.285 1.086-.779l.549.571q-.384.395-.867.68-.472.285-1.021.439-.549.143-1.13.143zm7.736 0q-.834 0-1.558-.296-.713-.307-1.262-.845-.538-.549-.845-1.262-.296-.724-.296-1.558 0-.834.296-1.547.307-.724.845-1.262.549-.549 1.262-.845.724-.307 1.558-.307.823 0 1.536.307.724.296 1.262.845.549.538.845 1.262.307.713.307 1.547 0 .834-.307 1.558-.296.713-.845 1.262-.538.538-1.262.845-.713.296-1.536.296zm0-.779q.658 0 1.218-.242.56-.242.977-.669.428-.439.658-1.021.241-.582.241-1.251 0-.68-.241-1.251-.23-.582-.658-1.01-.417-.439-.977-.68-.56-.242-1.218-.242-.658 0-1.229.242-.56.242-.988.68-.417.428-.658 1.01-.23.571-.23 1.251 0 .669.23 1.251.241.582.658 1.021.428.428.988.669.571.242 1.229.242zm5.278.658v-7.681h.845v6.924h4.576v.757zm6.628 0v-7.681h.845v6.924h4.576v.757zm6.628 0v-7.681h5.498v.746h-4.653v2.688h3.04v.735h-3.04v2.765h4.697v.746zm9.887.121q-.834 0-1.558-.296-.724-.307-1.273-.845-.549-.549-.856-1.262-.296-.724-.296-1.558 0-.834.296-1.547.307-.724.856-1.262.549-.549 1.273-.845.724-.307 1.558-.307.604 0 1.152.153.56.143 1.031.428.483.274.856.68l-.56.593q-.45-.516-1.108-.79-.658-.285-1.372-.285-.669 0-1.24.242-.571.242-.999.68-.417.428-.658 1.01-.23.571-.23 1.251 0 .669.23 1.251.241.582.669 1.021.428.428.999.669.582.242 1.251.242.713 0 1.361-.274.647-.285 1.086-.779l.549.571q-.384.395-.867.68-.472.285-1.021.439-.549.143-1.13.143zm6.529-.121v-6.924h-2.776v-.757h6.397v.757h-2.776v6.924zm4.653 0v-7.681h.845v7.681zm6.134.121q-.834 0-1.558-.296-.713-.307-1.262-.845-.538-.549-.845-1.262-.296-.724-.296-1.558 0-.834.296-1.547.307-.724.845-1.262.549-.549 1.262-.845.724-.307 1.558-.307.823 0 1.536.307.724.296 1.262.845.549.538.845 1.262.307.713.307 1.547 0 .834-.307 1.558-.296.713-.845 1.262-.538.538-1.262.845-.713.296-1.536.296zm0-.779q.658 0 1.218-.242.56-.242.977-.669.428-.439.658-1.021.241-.582.241-1.251 0-.68-.241-1.251-.23-.582-.658-1.01-.417-.439-.977-.68-.56-.242-1.218-.242-.658 0-1.229.242-.56.242-.988.68-.417.428-.658 1.01-.23.571-.23 1.251 0 .669.23 1.251.241.582.658 1.021.428.428.988.669.571.242 1.229.242zm5.278.658v-7.681h.845l4.62 6.233v-6.233h.801v7.681h-.746l-4.719-6.397v6.397z"
     text-anchor="middle"
     id="path2"
     style="fill:#ffffff;fill-opacity:1" />
</svg>
